<?xml version="1.0" encoding="UTF-8" standalone="no"?><svg xmlns="http://www.w3.org/2000/svg" style="isolation:isolate" viewBox="0 0 1024 1024" width="1024pt" height="1024pt"><defs><clipPath id="a"><path d="M0 0h1024v1024H0z"/></clipPath></defs><g clip-path="url(#a)"><path fill="none" d="M0 0h1024v1024H0z"/><path d="M204.8 0h614.4C932.232 0 1024 91.768 1024 204.8v614.4c0 113.032-91.768 204.8-204.8 204.8H204.8C91.768 1024 0 932.232 0 819.2V204.8C0 91.768 91.768 0 204.8 0z" fill="#222"/><path d="M542.603 304.699c0-46.836 18.649-91.841 51.775-124.924C627.461 146.649 672.466 128 719.301 128c46.836 0 91.841 18.649 124.924 51.775C877.351 212.858 896 257.863 896 304.699c0 46.835-18.649 91.84-51.775 124.923-33.083 33.126-78.088 51.775-124.924 51.775-46.835 0-91.84-18.649-124.923-51.775-33.126-33.083-51.775-78.088-51.775-124.923zm55.351 0c0-32.189 12.774-63.058 35.553-85.795 22.737-22.779 53.606-35.553 85.794-35.553 32.189 0 63.058 12.774 85.795 35.553 22.779 22.737 35.553 53.606 35.553 85.795 0 32.188-12.774 63.057-35.553 85.794-22.737 22.779-53.606 35.553-85.795 35.553-32.188 0-63.057-12.774-85.794-35.553-22.779-22.737-35.553-53.606-35.553-85.794zM481.397 719.301c0-46.835-18.649-91.84-51.775-124.923-33.083-33.126-78.088-51.775-124.923-51.775-46.836 0-91.841 18.649-124.924 51.775C146.649 627.461 128 672.466 128 719.301c0 46.836 18.649 91.841 51.775 124.924C212.858 877.351 257.863 896 304.699 896c46.835 0 91.84-18.649 124.923-51.775 33.126-33.083 51.775-78.088 51.775-124.924zm-55.351 0c0-32.188-12.774-63.057-35.553-85.794-22.737-22.779-53.606-35.553-85.794-35.553-32.189 0-63.058 12.774-85.795 35.553-22.779 22.737-35.553 53.606-35.553 85.794 0 32.189 12.774 63.058 35.553 85.795 22.737 22.779 53.606 35.553 85.795 35.553 32.188 0 63.057-12.774 85.794-35.553 22.779-22.737 35.553-53.606 35.553-85.795z" fill-rule="evenodd" fill="#DC143C"/><path d="M304.699 343.87l84.73 84.73 19.586 19.544 39.129-39.129-19.544-19.586-84.73-84.73 84.73-84.731 19.544-19.585-39.129-39.13-19.586 19.544-84.73 84.73-84.731-84.73-19.585-19.544-39.13 39.13 19.544 19.585 84.73 84.731-84.73 84.73-19.544 19.586 39.13 39.129 19.585-19.544 84.731-84.73zM719.301 758.473l-84.73 84.73-19.586 19.544-39.129-39.13 19.544-19.585 84.73-84.731-84.73-84.73-19.544-19.586 39.129-39.129 19.586 19.544 84.73 84.73 84.731-84.73 19.585-19.544 39.13 39.129-19.544 19.586-84.73 84.73 84.73 84.731 19.544 19.585-39.13 39.13-19.585-19.544-84.731-84.73z" fill="teal"/></g></svg>